<svg width="40" height="40" viewBox="0 0 40 40" fill="none" xmlns="http://www.w3.org/2000/svg">
<g clip-path="url(#clip0_118_8)">
<path d="M22.1011 21.4831H23.8833C24.8343 21.4831 25.6046 20.7118 25.6046 19.7596V16.09C25.6046 15.1378 24.8343 14.3665 23.8833 14.3665" stroke="white" stroke-linecap="round" stroke-linejoin="round"/>
<path d="M7.13081 14.3674C6.17982 14.3674 5.40948 15.1387 5.40948 16.091V19.7605C5.40948 20.7127 6.17982 21.4841 7.13081 21.4841H8.91304" stroke="white" stroke-linecap="round" stroke-linejoin="round"/>
<path d="M22.1011 21.4832V14.4662C22.1011 10.8199 19.1486 8.27734 15.5071 8.27734C11.8655 8.27734 8.91302 10.8199 8.91302 14.4662V21.4832C8.91302 24.479 10.9064 25.5796 13.6375 26.3875" stroke="white" stroke-linecap="round" stroke-linejoin="round"/>
<path d="M21.8514 23.1294C21.3419 24.6171 20.0905 25.4372 18.4493 26.0368" stroke="white" stroke-linecap="round" stroke-linejoin="round"/>
<path d="M15.573 25.177H15.0361C14.2566 25.177 13.6243 25.8101 13.6243 26.5906C13.6243 27.371 14.2566 28.0041 15.0361 28.0041H15.573C16.3525 28.0041 16.9848 27.371 16.9848 26.5906C16.9848 25.8101 16.3525 25.177 15.573 25.177Z" stroke="white" stroke-linecap="round" stroke-linejoin="round"/>
<path d="M7.16125 17.2079V14.6775C7.16125 10.0628 10.8982 6.32104 15.5071 6.32104C20.1159 6.32104 23.8529 10.0628 23.8529 14.6775V17.4142" stroke="white" stroke-linecap="round" stroke-linejoin="round"/>
<path d="M20.2346 28.1008L25.7467 29.3945C27.4559 30.2217 27.6944 35.6788 27.6944 35.6788H3.32074C3.32074 35.6788 3.55925 30.2217 5.2684 29.3945L10.7805 28.1008" stroke="white" stroke-linecap="round" stroke-linejoin="round"/>
<path d="M18.4006 17.4965C18.4006 17.2902 18.2332 17.1226 18.0271 17.1226C17.8211 17.1226 17.6536 17.2902 17.6536 17.4965C17.6536 17.7028 17.8211 17.8705 18.0271 17.8705C18.2332 17.8705 18.4006 17.7028 18.4006 17.4965Z" stroke="white" stroke-linecap="round" stroke-linejoin="round"/>
<path d="M12.988 17.8705C13.1943 17.8705 13.3615 17.7031 13.3615 17.4965C13.3615 17.29 13.1943 17.1226 12.988 17.1226C12.7817 17.1226 12.6145 17.29 12.6145 17.4965C12.6145 17.7031 12.7817 17.8705 12.988 17.8705Z" stroke="white" stroke-linecap="round" stroke-linejoin="round"/>
<path d="M19.8337 14.9142C18.1844 14.6754 16.6509 14.0911 15.5081 12.3391" stroke="white" stroke-linecap="round" stroke-linejoin="round"/>
<path d="M11.1814 14.9142C12.8307 14.6754 14.3642 14.0911 15.507 12.3391" stroke="white" stroke-linecap="round" stroke-linejoin="round"/>
<path d="M13.1788 22.3083C14.7316 23.5166 16.2835 23.5166 17.8353 22.3083" stroke="white" stroke-linecap="round" stroke-linejoin="round"/>
<path d="M22.16 6.77832H37.6793V15.2699H29.7821L27.8385 18.5533" stroke="white" stroke-linecap="round" stroke-linejoin="round"/>
<path d="M27.0966 11.1493C27.0966 10.8617 26.8631 10.6279 26.5759 10.6279C26.2887 10.6279 26.0552 10.8617 26.0552 11.1493C26.0552 11.4368 26.2887 11.6706 26.5759 11.6706C26.8631 11.6706 27.0966 11.4368 27.0966 11.1493Z" stroke="white" stroke-linecap="round" stroke-linejoin="round"/>
<path d="M30.8417 11.1493C30.8417 10.8617 30.6082 10.6279 30.321 10.6279C30.0338 10.6279 29.8004 10.8617 29.8004 11.1493C29.8004 11.4368 30.0338 11.6706 30.321 11.6706C30.6082 11.6706 30.8417 11.4368 30.8417 11.1493Z" stroke="white" stroke-linecap="round" stroke-linejoin="round"/>
<path d="M34.5858 11.1493C34.5858 10.8617 34.3523 10.6279 34.0651 10.6279C33.7779 10.6279 33.5444 10.8617 33.5444 11.1493C33.5444 11.4368 33.7779 11.6706 34.0651 11.6706C34.3523 11.6706 34.5858 11.4368 34.5858 11.1493Z" stroke="white" stroke-linecap="round" stroke-linejoin="round"/>
</g>
<defs>
<clipPath id="clip0_118_8">
<rect width="35" height="30" fill="white" transform="translate(3 6)"/>
</clipPath>
</defs>
</svg>
