<svg width="40" height="40" viewBox="0 0 40 40" fill="none" xmlns="http://www.w3.org/2000/svg">
<g clip-path="url(#clip0_118_90)">
<path d="M11.5493 29.4585H30.23" stroke="white" stroke-linecap="round" stroke-linejoin="round"/>
<path d="M7.60822 18.1458V29.4584" stroke="white" stroke-linecap="round" stroke-linejoin="round"/>
<path d="M33.9931 29.4583V10.0325H19.1967" stroke="white" stroke-linecap="round" stroke-linejoin="round"/>
<path d="M7.73792 32.9067L10.9559 26.8352H30.6446L33.8634 32.9067" stroke="white" stroke-linecap="round" stroke-linejoin="round"/>
<path d="M35.9226 34.6501H5.67877" stroke="white" stroke-linecap="round" stroke-linejoin="round"/>
<path d="M13.1327 12.723C14.8163 10.0675 15.2012 7.28647 13.9924 6.51144C12.7836 5.73642 10.4388 7.26086 8.75518 9.91638C7.07158 12.5719 6.6867 15.3529 7.89552 16.1279C9.10434 16.9029 11.4491 15.3785 13.1327 12.723Z" stroke="white" stroke-linecap="round" stroke-linejoin="round"/>
<path d="M14.4944 7.12036L19.2095 13.1091L21.8747 15.4902C22.77 16.2898 22.9548 17.6248 22.3113 18.6401C21.6679 19.6554 20.3861 20.0501 19.2875 19.571L16.016 18.1457L8.39999 16.3128" stroke="white" stroke-linecap="round" stroke-linejoin="round"/>
<path d="M16.868 19.467C16.0813 20.2769 15.2234 20.9504 14.2833 21.4661C13.9298 21.6597 13.8611 22.1396 14.1527 22.4184L15.0827 23.3101C15.2692 23.4883 15.5506 23.5275 15.7744 23.3996C16.9511 22.727 17.8531 21.8208 18.772 20.3059L19.195 19.5634" stroke="white" stroke-linecap="round" stroke-linejoin="round"/>
<path d="M6.90543 8.76922L5.17859 7.64648" stroke="white" stroke-linecap="round" stroke-linejoin="round"/>
<path d="M8.29404 7.25523L7.08856 5.58008" stroke="white" stroke-linecap="round" stroke-linejoin="round"/>
<path d="M10.1345 6.34981L9.61395 4.34985" stroke="white" stroke-linecap="round" stroke-linejoin="round"/>
<path d="M6.13992 10.6533L4.12146 10.2603" stroke="white" stroke-linecap="round" stroke-linejoin="round"/>
<path d="M6.10009 12.7119L4.07739 13.0819" stroke="white" stroke-linecap="round" stroke-linejoin="round"/>
<path d="M19.2103 13.1091C18.6585 15.254 17.5937 16.9334 16.0169 18.1457" stroke="white" stroke-linecap="round" stroke-linejoin="round"/>
</g>
<defs>
<clipPath id="clip0_118_90">
<rect width="32.381" height="30.839" fill="white" transform="translate(3.80951 4.08057)"/>
</clipPath>
</defs>
</svg>
