<svg width="40" height="40" viewBox="0 0 40 40" fill="none" xmlns="http://www.w3.org/2000/svg">
<path d="M9.47469 28.8946V23.7332L17.8414 15.0007L32.2793 28.8882" stroke="white" stroke-linecap="round" stroke-linejoin="round"/>
<path d="M7.21976 36.3605C5.43496 36.3605 3.80952 34.7377 3.80952 32.9558V31.2392H28.4169V32.9558C28.4169 34.7377 30.0423 36.3605 31.8271 36.3605C33.6119 36.3605 35.2374 34.7377 35.2374 32.9558V23.7333L29.6486 18.4561L27.3614 20.9419" stroke="white" stroke-linecap="round" stroke-linejoin="round"/>
<path d="M27.9342 4.98167V2.63916H31.5334V6.47485H35.2381V20.825" stroke="white" stroke-linecap="round" stroke-linejoin="round"/>
<path d="M13.2711 4.98167V2.63916H16.8703V6.47485H29.5127" stroke="white" stroke-linecap="round" stroke-linejoin="round"/>
<path d="M9.47469 20.8155V6.47485H14.8513" stroke="white" stroke-linecap="round" stroke-linejoin="round"/>
<path d="M30.8316 12.4832C30.8316 11.1302 29.7328 10.0332 28.3776 10.0332C27.0223 10.0332 25.9236 11.1302 25.9236 12.4832C25.9236 13.8362 27.0223 14.9332 28.3776 14.9332C29.7328 14.9332 30.8316 13.8362 30.8316 12.4832Z" stroke="white" stroke-linecap="round" stroke-linejoin="round"/>
<path d="M6.99303 36.3606H31.6004" stroke="white" stroke-linecap="round" stroke-linejoin="round"/>
</svg>
