<svg width="40" height="40" viewBox="0 0 40 40" fill="none" xmlns="http://www.w3.org/2000/svg">
<g clip-path="url(#clip0_118_57)">
<path d="M29.3072 15.2695C31.785 14.87 33.4676 12.5507 33.0654 10.0893C32.6632 7.62784 30.3285 5.95636 27.8507 6.35591C25.3729 6.75545 23.6903 9.07472 24.0925 11.5361C24.4947 13.9976 26.8294 15.669 29.3072 15.2695Z" stroke="white" stroke-linecap="round" stroke-linejoin="round"/>
<path d="M26.8701 22.1111V28.5555" stroke="white" stroke-linecap="round" stroke-linejoin="round"/>
<path d="M31.7121 18.4813C31.0451 17.8357 30.0818 17.3823 29.1404 17.3823H27.7616C25.9616 17.3823 24.4037 18.6261 24.0159 20.3725L22.9229 25.3004L15.8736 26.033C15.2724 26.0955 14.8159 26.5991 14.8169 27.2001C14.8169 27.8485 15.3467 28.3729 15.9994 28.3729H24.7067" stroke="white" stroke-linecap="round" stroke-linejoin="round"/>
<path d="M22.5366 30.3296H7.55225V33.918" stroke="white" stroke-linecap="round" stroke-linejoin="round"/>
<path d="M34.8352 17.9419H35.4856L35.0784 34.4985H21.7502L21.7415 33.8813C21.7242 32.6637 22.1055 31.5932 22.7913 30.8208L22.9319 30.6704C23.621 29.9767 24.5447 29.5933 25.5403 29.5933C26.817 29.5933 27.877 28.7946 28.2463 27.6274L28.3108 27.3892L29.4915 22.1851C30.0577 19.6872 32.2519 17.9421 34.8352 17.9419Z" stroke="white"/>
<path d="M13.178 27.8051H9.07208L6.30115 17.1165H18.9552L20.7714 23.6298" stroke="white" stroke-linecap="round" stroke-linejoin="round"/>
</g>
<defs>
<clipPath id="clip0_118_57">
<rect width="30" height="29" fill="white" transform="translate(6 6)"/>
</clipPath>
</defs>
</svg>
