<svg width="130" height="95" viewBox="0 0 130 95" fill="none" xmlns="http://www.w3.org/2000/svg">
<g clip-path="url(#clip0_1_686)">
<path d="M113.082 41.5506C103.277 44.845 103.284 28.7509 99.3333 35.6677C99.2409 35.7177 98.374 35.0331 98.4522 34.6623L98.9212 32.3947C94.2813 33.0864 95.0274 42.6345 85.6624 41.408C79.502 40.6022 74.7769 34.534 76.1128 28.2589L80.3618 23.2959C70.2011 21.9696 75.4449 15.3024 69.3058 5.191C65.0994 -1.73294 83.3177 -5.17708 96.6972 17.7054C97.3935 18.8963 101.024 18.8321 102.048 17.9764C105.92 9.6691 117.445 -1.99677 127.357 0.363498C128.934 0.741427 130.149 3.46537 129.51 4.71324C122.71 17.9835 128.338 21.3849 118.063 23.5812C119.946 25.535 121.737 27.1394 122.326 28.7295C124.096 33.4501 120.358 39.0976 113.075 41.5435L113.082 41.5506Z" fill="white"/>
</g>
<g clip-path="url(#clip1_1_686)">
<path d="M34.1018 31.89C30.2733 36.4221 25.4976 28.5627 25.615 33.1175C25.5845 33.1694 24.9563 33.0937 24.8845 32.8894L24.441 31.6425C22.3719 33.3636 25.573 37.8026 20.618 39.9962C17.3588 41.4397 13.2405 39.886 12.0319 36.4241L12.6411 32.7342C7.26633 35.1163 7.85703 30.2978 1.84498 27.1918C-2.27314 25.0657 5.6349 17.9521 18.9887 25.1342C19.6837 25.5079 21.4445 24.394 21.692 23.6711C21.1234 18.4608 23.3089 9.32895 28.8688 7.52576C29.7543 7.23994 31.1588 8.2075 31.2158 9.00741C31.8231 17.5136 35.5918 17.4962 31.2074 21.632C32.7106 22.0245 34.0648 22.2739 34.8261 22.8743C37.0952 24.6514 36.9401 28.523 34.0962 31.8887L34.1018 31.89Z" fill="white"/>
</g>
<g clip-path="url(#clip2_1_686)">
<path d="M73.8045 94.6257C65.6065 97.371 65.6124 83.9593 62.3094 89.7233C62.2322 89.7649 61.5074 89.1944 61.5728 88.8854L61.9649 86.9958C58.0857 87.5722 58.7094 95.5289 50.8797 94.5068C45.7292 93.8353 41.7787 88.7785 42.8956 83.5493L46.448 79.4134C37.953 78.3082 42.3371 72.7521 37.2045 64.326C33.6876 58.556 48.9193 55.6859 60.1055 74.7547C60.6876 75.7471 63.7233 75.6936 64.5787 74.9805C67.8164 68.0577 77.452 58.3362 85.7391 60.3031C87.0579 60.618 88.0738 62.888 87.5391 63.9279C81.854 74.9864 86.5589 77.8209 77.9688 79.6511C79.5431 81.2793 81.0401 82.6163 81.5332 83.9414C83.0124 87.8752 79.8876 92.5815 73.7985 94.6197L73.8045 94.6257Z" fill="white"/>
</g>
<defs>
<clipPath id="clip0_1_686">
<rect width="61" height="42" fill="white" transform="translate(68.6875)"/>
</clipPath>
<clipPath id="clip1_1_686">
<rect width="35" height="24" fill="white" transform="translate(0 24.8418) rotate(-31.3101)"/>
</clipPath>
<clipPath id="clip2_1_686">
<rect width="51" height="35" fill="white" transform="translate(36.6875 60)"/>
</clipPath>
</defs>
</svg>
