<svg width="414" height="426" viewBox="0 0 414 426" fill="none" xmlns="http://www.w3.org/2000/svg">
<g clip-path="url(#clip0_1_674)">
<path d="M360.602 325.243C352.872 333.383 343.118 340.425 331.554 346.199C330.548 346.703 329.524 347.194 328.511 347.667C327.478 348.151 326.429 348.625 325.386 349.076C325.368 349.085 325.355 349.088 325.343 349.097L325.338 349.102C324.706 348.073 324.056 347.048 323.394 346.036C322.76 345.065 322.091 344.067 321.409 343.083C320.722 342.088 320.01 341.087 319.292 340.11C312.213 330.429 303.74 321.4 294.067 313.196C298.837 312.086 303.537 310.776 308.098 309.277C314.454 307.186 320.601 304.717 326.413 301.928C327.072 302.224 327.727 302.521 328.36 302.814C329.41 303.301 330.435 303.794 331.41 304.283C343.014 310.057 352.822 317.104 360.602 325.243Z" fill="#F1CA76" fill-opacity="0.15"/>
<path d="M332.796 382.23C321.994 385.318 309.995 386.428 297.072 385.535C295.957 385.46 294.824 385.366 293.707 385.259C292.521 385.147 291.421 385.027 290.344 384.897C290.309 384.891 290.272 384.888 290.238 384.882C276.216 383.172 262.051 379.256 248.131 373.238C246.811 372.668 245.522 372.092 244.307 371.528C244.272 371.512 244.236 371.495 244.204 371.481C242.989 370.922 241.722 370.316 240.34 369.632C236.709 367.839 233.101 365.892 229.613 363.844C221.6 359.145 213.965 353.784 206.923 347.907C205.485 346.713 204.065 345.481 202.687 344.247C201.078 342.811 199.505 341.344 198.007 339.889C184.05 326.368 173.405 311.017 167.211 295.493C166.448 293.575 165.742 291.638 165.109 289.703C165.143 289.732 165.181 289.756 165.214 289.786C165.615 290.105 166.017 290.423 166.426 290.738C166.48 290.777 166.535 290.822 166.593 290.863C166.953 291.139 167.312 291.41 167.679 291.683C167.808 291.778 167.934 291.871 168.06 291.969C168.372 292.198 168.685 292.427 168.997 292.656C169.123 292.744 169.241 292.834 169.369 292.924C169.799 293.233 170.228 293.537 170.665 293.837C183.772 302.927 199.932 309.747 217.683 313.714C219.52 314.126 221.372 314.506 223.243 314.854C225.41 315.258 227.615 315.626 229.791 315.944C230.256 316.012 230.724 316.078 231.197 316.144C232.615 316.336 234.078 316.517 235.547 316.679C242.039 317.398 248.63 317.744 255.236 317.718C258.239 317.709 261.245 317.619 264.243 317.454C268.41 317.221 272.636 316.839 276.811 316.307C278.377 316.105 279.884 315.891 281.297 315.672C282.645 315.464 284.049 315.232 285.592 314.955C285.831 314.911 286.072 314.868 286.31 314.824C297.19 323.515 306.599 333.246 314.289 343.759C314.973 344.69 315.65 345.646 316.309 346.6C316.962 347.539 317.599 348.484 318.204 349.414C319.232 350.985 320.225 352.589 321.169 354.187C321.174 354.192 321.174 354.192 321.175 354.203C321.284 354.464 321.43 354.708 321.6 354.924C326.88 363.994 330.64 373.17 332.791 382.235L332.796 382.23Z" fill="#F1CA76" fill-opacity="0.15"/>
<path d="M149.769 276.012C147.788 275.605 145.783 275.129 143.786 274.584C127.659 270.2 111.194 261.366 96.1779 249.039C94.4953 247.656 92.8615 246.258 91.3126 244.876C89.9468 243.668 88.5669 242.397 87.2005 241.089C80.5644 234.758 74.3699 227.781 68.7885 220.357C66.3317 217.086 63.9898 213.72 61.8183 210.352C61.0312 209.136 60.2475 207.887 59.4903 206.642C59.4758 206.619 59.4666 206.596 59.4497 206.576C58.7564 205.438 58.0667 204.273 57.3485 203.024C49.787 189.874 44.2862 176.245 40.9939 162.513C40.9868 162.482 40.9797 162.451 40.9702 162.423C40.7025 161.303 40.4536 160.19 40.2222 159.108C40.0052 158.093 39.7895 157.009 39.566 155.795C37.2107 143.068 36.9527 131.018 38.7955 119.932C48.028 121.037 57.55 123.721 67.1563 127.926C67.4015 128.085 67.6738 128.214 67.9722 128.298C67.991 128.304 68.0122 128.308 68.0334 128.313C69.7129 129.064 71.4033 129.864 73.0641 130.697C74.0174 131.176 74.9987 131.686 76.0784 132.263C77.0172 132.764 78.0139 133.311 79.1231 133.945C90.4466 140.389 101.176 148.63 111.05 158.453C111.033 158.695 111.016 158.943 111.002 159.192C110.953 159.976 110.908 160.722 110.872 161.442C110.836 162.162 110.803 162.856 110.78 163.528C110.723 164.962 110.679 166.486 110.657 168.07C110.602 172.268 110.7 176.513 110.945 180.676C111.507 190.275 112.866 199.837 114.975 209.098C115.414 211.034 115.882 212.932 116.358 214.737C116.921 216.873 117.535 219.019 118.183 221.121C124.148 240.509 133.434 257.747 145.041 270.972C145.392 271.37 145.74 271.759 146.093 272.154C146.197 272.271 146.303 272.381 146.407 272.498C146.665 272.783 146.922 273.062 147.182 273.338C147.295 273.463 147.409 273.58 147.521 273.7C147.817 274.019 148.119 274.332 148.42 274.64C148.482 274.705 148.541 274.773 148.604 274.835C148.959 275.2 149.318 275.56 149.675 275.918C149.708 275.948 149.739 275.985 149.772 276.015L149.769 276.012Z" fill="#F1CA76" fill-opacity="0.15"/>
<path d="M111.778 150.565C102.53 141.884 92.5976 134.498 82.1742 128.565C81.0109 127.903 79.9654 127.326 78.9804 126.799C77.8602 126.201 76.8273 125.66 75.8281 125.16C74.7506 124.619 73.6556 124.093 72.564 123.579C72.5707 123.561 72.5747 123.539 72.5815 123.521C72.911 122.439 73.2635 121.347 73.6271 120.266C73.9814 119.206 74.3533 118.133 74.7369 117.079C79.1591 104.934 85.044 94.4398 92.2562 85.8377C101.229 92.6452 109.34 101.589 116.398 112.464C116.992 113.374 117.599 114.336 118.207 115.33C118.567 115.913 118.933 116.521 119.3 117.146C117.186 123.234 115.432 129.627 114.077 136.179C113.106 140.881 112.341 145.697 111.778 150.56L111.778 150.565Z" fill="#F1CA76" fill-opacity="0.15"/>
<path d="M155.861 273.31C155.841 273.293 155.825 273.278 155.805 273.261C155.339 272.82 154.875 272.371 154.413 271.915C154.341 271.84 154.263 271.771 154.191 271.696C153.737 271.242 153.288 270.787 152.834 270.322C152.755 270.243 152.683 270.163 152.607 270.086C152.155 269.613 151.705 269.132 151.257 268.649C151.198 268.586 151.142 268.521 151.086 268.461C150.618 267.95 150.15 267.428 149.684 266.904C138.655 254.333 129.807 237.881 124.097 219.325C123.475 217.3 122.882 215.236 122.341 213.18C121.88 211.442 121.432 209.617 121.008 207.754C118.97 198.824 117.663 189.605 117.121 180.346C116.884 176.324 116.79 172.231 116.843 168.185C116.866 166.661 116.902 165.184 116.96 163.795C117.009 162.492 117.078 161.129 117.175 159.617C117.221 158.92 117.269 158.225 117.322 157.531C117.845 150.731 118.792 143.979 120.138 137.464C121.612 130.339 123.571 123.421 125.961 116.906C126.347 115.85 126.765 114.758 127.203 113.659C127.633 112.582 128.061 111.534 128.495 110.536C133.58 98.6603 140.038 88.5094 147.715 80.3167C156.3 87.6041 163.906 96.9788 170.357 108.228C170.883 109.142 171.42 110.111 172.002 111.19C172.528 112.159 173.071 113.198 173.617 114.279C179.997 126.895 184.623 140.841 187.357 155.743C187.612 157.129 187.848 158.517 188.062 159.881C188.281 161.24 188.485 162.659 188.692 164.214C189.218 168.208 189.601 172.282 189.84 176.335C189.962 178.359 190.046 180.419 190.091 182.479C189.925 182.687 189.759 182.896 189.596 183.101C189.349 183.411 189.103 183.721 188.856 184.03C188.569 184.397 188.279 184.767 187.994 185.136C187.752 185.446 187.511 185.755 187.276 186.07C186.986 186.445 186.701 186.824 186.414 187.202C186.184 187.511 185.948 187.82 185.719 188.131C185.433 188.519 185.152 188.907 184.866 189.3C184.643 189.606 184.419 189.911 184.196 190.217C183.908 190.618 183.625 191.024 183.337 191.43C183.127 191.728 182.914 192.022 182.706 192.322C182.411 192.747 182.117 193.177 181.825 193.605C181.631 193.883 181.438 194.166 181.248 194.446C180.927 194.923 180.612 195.399 180.297 195.88C180.14 196.116 179.981 196.35 179.828 196.59C179.359 197.305 178.9 198.024 178.442 198.749C177.412 200.383 176.398 202.048 175.437 203.7C174.323 205.611 173.237 207.557 172.215 209.482C165.041 223.008 160.141 236.791 157.65 250.452C157.113 253.382 156.693 256.314 156.389 259.21C156.24 260.646 156.114 262.073 156.022 263.491C156.016 263.525 156.016 263.559 156.013 263.596C155.985 264.022 155.96 264.445 155.938 264.871C155.931 265.018 155.924 265.165 155.917 265.318C155.9 265.594 155.892 265.869 155.88 266.145C155.872 266.321 155.869 266.497 155.861 266.673C155.854 266.92 155.843 267.167 155.839 267.416C155.832 267.602 155.829 267.788 155.822 267.975C155.82 268.211 155.813 268.447 155.811 268.683C155.807 268.872 155.808 269.066 155.808 269.254C155.803 269.482 155.801 269.713 155.801 269.941C155.8 270.138 155.803 270.329 155.801 270.52C155.802 270.748 155.802 270.971 155.81 271.196C155.811 271.395 155.817 271.588 155.821 271.779C155.826 272.002 155.828 272.222 155.836 272.447C155.842 272.64 155.846 272.837 155.852 273.03C155.855 273.122 155.858 273.218 155.858 273.313L155.861 273.31Z" fill="#F1CA76" fill-opacity="0.15"/>
<path d="M331.948 292.033C331.948 292.033 331.948 292.033 331.943 292.038C330.997 292.58 330.03 293.113 328.993 293.668C327.949 294.226 326.914 294.768 325.908 295.272C319.703 298.392 313.057 301.125 306.146 303.393C299.826 305.471 293.223 307.182 286.524 308.471C285.845 308.603 285.161 308.73 284.476 308.857C282.993 309.122 281.643 309.349 280.342 309.549C278.976 309.76 277.512 309.964 276.009 310.163C271.985 310.676 267.91 311.045 263.887 311.267C254.629 311.778 245.321 311.526 236.212 310.517C234.318 310.307 232.454 310.069 230.67 309.809C228.574 309.508 226.454 309.156 224.365 308.763C218.999 307.762 213.767 306.494 208.717 304.978C195.807 301.102 184.067 295.598 174.19 288.751C173.616 288.353 173.049 287.947 172.488 287.54C172.42 287.489 172.349 287.441 172.277 287.387C171.749 286.999 171.223 286.609 170.707 286.213C170.619 286.145 170.523 286.074 170.43 286.006C169.922 285.617 169.419 285.223 168.927 284.828C168.839 284.76 168.756 284.691 168.666 284.62C168.165 284.218 167.672 283.813 167.184 283.402L167.126 283.35C167.17 283.345 167.22 283.34 167.267 283.337C167.963 283.281 168.662 283.216 169.362 283.143C169.472 283.132 169.581 283.121 169.691 283.109C170.396 283.031 171.102 282.948 171.809 282.856C171.908 282.84 172.007 282.829 172.105 282.814C172.831 282.718 173.553 282.616 174.275 282.503C174.343 282.494 174.416 282.479 174.483 282.47C175.244 282.352 176.002 282.226 176.762 282.088C181.005 281.329 185.341 280.278 189.653 278.968C202.939 274.933 216.071 268.499 228.679 259.84C230.467 258.615 232.275 257.318 234.063 255.982C235.594 254.839 237.133 253.643 238.64 252.433C239.303 251.902 239.963 251.362 240.62 250.82C240.835 250.641 241.047 250.458 241.262 250.279C241.704 249.911 242.147 249.544 242.583 249.166C242.84 248.945 243.099 248.721 243.354 248.502C243.745 248.164 244.137 247.825 244.528 247.481C244.805 247.238 245.079 246.992 245.352 246.746C245.718 246.42 246.084 246.093 246.448 245.764C246.734 245.504 247.012 245.248 247.296 244.986C247.649 244.662 248.002 244.339 248.35 244.011C248.638 243.743 248.921 243.471 249.204 243.204C249.546 242.881 249.886 242.555 250.223 242.228C250.509 241.952 250.796 241.675 251.076 241.4C251.411 241.075 251.748 240.747 252.077 240.417C252.362 240.136 252.639 239.854 252.921 239.571C253.109 239.383 253.303 239.194 253.49 239C255.469 238.82 257.522 238.667 259.607 238.552C263.656 238.329 267.75 238.25 271.777 238.318C273.349 238.344 274.78 238.388 276.162 238.448C277.528 238.504 278.937 238.583 280.345 238.676C289.478 239.296 298.464 240.666 307.052 242.749C307.092 242.76 307.132 242.766 307.174 242.774C312.63 244.097 317.988 245.725 323.102 247.615C324.236 248.037 325.33 248.459 326.355 248.869C327.49 249.322 328.514 249.745 329.485 250.171C341.391 255.3 351.57 261.786 359.783 269.49C352.519 278.05 343.165 285.618 331.944 292.02L331.948 292.033Z" fill="#F1CA76" fill-opacity="0.15"/>
<path d="M306.625 236.3C298.265 234.385 289.568 233.11 280.745 232.509C279.279 232.409 277.817 232.328 276.404 232.269C274.969 232.207 273.483 232.163 271.854 232.135C267.832 232.066 263.748 232.145 259.701 232.355C262.39 229.33 264.989 226.189 267.436 223.012C268.403 221.761 269.285 220.583 270.136 219.412C270.146 219.401 270.153 219.392 270.16 219.384C270.985 218.254 271.832 217.059 272.675 215.847C277.784 208.461 282.208 200.847 285.917 193.069C286.98 193.008 287.966 192.967 288.918 192.935C290.001 192.902 291.137 192.876 292.295 192.869C305.237 192.789 317.156 194.652 327.766 198.411C324.57 209.176 319.067 219.877 311.38 230.258C310.71 231.165 310.024 232.067 309.34 232.946C308.63 233.853 307.893 234.768 307.164 235.658C306.988 235.866 306.809 236.083 306.628 236.303L306.625 236.3Z" fill="#F1CA76" fill-opacity="0.15"/>
<path d="M254.774 228.569C253.181 230.355 251.519 232.139 249.836 233.87C245.074 238.768 239.997 243.384 234.744 247.602C233.292 248.767 231.809 249.918 230.338 251.021C228.618 252.303 226.878 253.552 225.154 254.732C213.066 263.032 200.51 269.193 187.827 273.042C183.748 274.284 179.648 275.278 175.643 275.997C173.608 276.364 171.568 276.662 169.548 276.894C168.553 277.007 167.568 277.103 166.587 277.183C166.368 277.201 166.152 277.22 165.933 277.233C165.914 277.236 165.894 277.237 165.878 277.238C165.867 277.239 165.852 277.24 165.838 277.238C165.794 277.243 165.747 277.245 165.7 277.248L165.674 277.249C165.674 277.249 165.656 277.253 165.648 277.251C164.541 277.328 163.553 277.377 162.607 277.408C162.499 277.412 162.403 277.414 162.303 277.42C162.295 277.323 162.289 277.229 162.281 277.133C162.281 277.133 162.279 277.101 162.279 277.096C162.203 276.162 162.145 275.175 162.093 274.075C162.093 274.064 162.092 274.049 162.094 274.035C162.092 273.97 162.091 273.899 162.084 273.834C162.011 272.135 161.993 270.407 162.022 268.665C162.048 267.155 162.103 265.634 162.202 264.109C162.205 264.072 162.211 264.038 162.214 264.001C162.473 259.941 162.992 255.762 163.758 251.58C164.055 249.949 164.389 248.317 164.759 246.682C167.347 235.246 171.691 223.734 177.707 212.392C178.688 210.54 179.733 208.667 180.804 206.826C181.73 205.237 182.708 203.634 183.7 202.06C184.468 200.843 185.256 199.636 186.058 198.437C188.086 195.4 190.22 192.419 192.452 189.515C193.492 188.166 194.548 186.832 195.622 185.518C197.137 183.663 198.724 181.801 200.336 179.993C203.031 176.973 205.859 174.026 208.745 171.226C209.853 170.151 210.89 169.166 211.925 168.218C212.921 167.295 213.967 166.357 215.037 165.426C222.162 159.187 229.735 153.644 237.546 148.941C237.666 148.88 237.785 148.808 237.898 148.731C242.372 146.05 246.944 143.636 251.489 141.548C252.543 141.063 253.611 140.59 254.669 140.138C255.766 139.666 256.787 139.246 257.791 138.85C269.807 134.073 281.571 131.487 292.805 131.145C293.739 142.353 292.507 154.335 289.129 166.808C288.817 167.954 288.512 169.019 288.199 170.061C287.881 171.124 287.539 172.215 287.184 173.303C287.175 173.33 287.163 173.354 287.154 173.381C282.761 186.78 276.175 199.875 267.574 212.306C266.772 213.466 265.966 214.604 265.178 215.682C265.166 215.696 265.158 215.704 265.146 215.718C264.322 216.853 263.464 217.999 262.521 219.217C260.072 222.397 257.463 225.543 254.768 228.564L254.774 228.569Z" fill="#F1CA76" fill-opacity="0.15"/>
<path d="M232.919 144.496C225.299 149.201 217.91 154.666 210.941 160.762C209.834 161.73 208.749 162.707 207.715 163.66C206.643 164.644 205.566 165.668 204.421 166.779C201.54 169.574 198.71 172.518 196.004 175.534C195.756 171.487 195.369 167.41 194.843 163.422C194.63 161.807 194.418 160.335 194.194 158.927C193.972 157.517 193.727 156.076 193.462 154.637C191.942 146.362 189.855 138.367 187.226 130.707C187.577 130.336 187.93 129.963 188.281 129.603L188.31 129.57C189.101 128.751 189.912 127.93 190.73 127.131C191.52 126.351 192.339 125.567 193.164 124.798C202.609 115.981 212.615 109.297 222.95 104.896C227.887 115.013 231.092 126.638 232.484 139.51C232.6 140.594 232.709 141.725 232.803 142.883C232.844 143.41 232.884 143.95 232.924 144.501L232.919 144.496Z" fill="#F1CA76" fill-opacity="0.15"/>
</g>
<defs>
<clipPath id="clip0_1_674">
<rect width="394" height="219" fill="white" transform="translate(145.792) rotate(41.7372)"/>
</clipPath>
</defs>
</svg>
